# Blender v3.1.2 OBJ File: 'talentenplein_dimence.blend'
# www.blender.org
o Cube_Cube.001
v -15.000000 0.000000 4.000000
v -15.000000 15.000000 4.000000
v -15.000000 0.000000 -4.000000
v -15.000000 15.000000 -4.000000
v 15.000000 0.000000 4.000000
v 15.000000 15.000000 4.000000
v 15.000000 0.000000 -4.000000
v 15.000000 15.000000 -4.000000
v -12.264406 0.000000 -4.000000
v -12.264406 15.000000 -4.000000
v -12.264406 0.000000 4.000000
v -12.264406 15.000000 4.000000
v -8.492499 15.000000 -4.000000
v -8.492499 0.000000 4.000000
v -8.492499 0.000000 -4.000000
v -8.492499 15.000000 4.000000
v -8.492499 15.000000 7.637225
v -12.264406 15.000000 7.637225
v -12.264406 0.000000 7.637225
v -8.492499 0.000000 7.637225
v -5.928894 15.000000 8.504622
v -14.828012 15.000000 8.504622
v -14.828012 0.000000 8.504622
v -5.928894 0.000000 8.504622
v -5.928894 15.000000 38.504623
v -14.828012 15.000000 38.504623
v -14.828012 0.000000 38.504623
v -5.928894 0.000000 38.504623
v -8.492499 0.000000 -8.000000
v -12.264406 0.000000 -8.000000
v -12.264406 15.000000 -8.000000
v -8.492499 15.000000 -8.000000
v -6.179662 0.000000 -9.000000
v -14.577244 0.000000 -9.000000
v -14.577244 15.000000 -9.000000
v -6.179662 15.000000 -9.000000
v -6.179662 0.000000 -39.000000
v -14.577244 0.000000 -39.000000
v -14.577244 15.000000 -39.000000
v -6.179662 15.000000 -39.000000
v 15.000000 0.000000 0.000000
v 15.000000 15.000000 0.000000
v -15.000000 0.000000 0.000000
v -15.000000 15.000000 0.000000
v -12.264406 15.000000 0.000000
v -12.264406 0.000000 0.000000
v -8.492499 15.000000 0.000000
v -8.492499 0.000000 0.000000
v -15.000000 15.000000 -2.000000
v -15.000000 0.000000 -2.000000
v -12.264406 15.000000 -2.000000
v -12.264406 0.000000 -2.000000
v -8.492499 15.000000 -2.000000
v -8.492499 0.000000 -2.000000
v -15.000000 0.000000 2.000000
v -12.264406 15.000000 2.000000
v -12.264406 0.000000 2.000000
v -8.492499 15.000000 2.000000
v -8.492499 0.000000 2.000000
v -15.000000 15.000000 2.000000
v -20.083427 0.000000 2.000000
v -20.083427 15.000000 -2.000000
v -20.083427 0.000000 -2.000000
v -20.083427 0.000000 0.000000
v -20.083427 15.000000 2.000000
v -20.083427 15.000000 0.000000
v -15.000000 0.000000 4.000000
v -20.083427 0.000000 2.000000
v -16.315689 0.000000 3.931852
v -17.541716 0.000000 3.732051
v -18.594528 0.000000 3.414214
v -19.402380 0.000000 3.000000
v -19.910217 0.000000 2.517638
v -20.083427 15.000000 2.000000
v -15.000000 15.000000 4.000000
v -19.910217 15.000000 2.517638
v -19.402380 15.000000 3.000000
v -18.594528 15.000000 3.414214
v -17.541716 15.000000 3.732051
v -16.315689 15.000000 3.931852
v -15.000000 15.000000 -4.000000
v -20.083427 15.000000 -2.000000
v -16.315689 15.000000 -3.931852
v -17.541716 15.000000 -3.732051
v -18.594528 15.000000 -3.414214
v -19.402380 15.000000 -3.000000
v -19.910217 15.000000 -2.517638
v -20.083427 0.000000 -2.000000
v -15.000000 0.000000 -4.000000
v -19.910217 0.000000 -2.517638
v -19.402380 0.000000 -3.000000
v -18.594528 0.000000 -3.414214
v -17.541716 0.000000 -3.732051
v -16.315689 0.000000 -3.931852
vt -0.425965 0.176796
vt -0.410062 0.233441
vt -0.563823 0.294230
vt 2.199292 0.994041
vt 1.471488 0.054606
vt 2.199292 0.054606
vt 1.471487 0.994041
vt 1.003142 0.054606
vt 1.527607 1.933477
vt 1.442857 0.994042
vt 1.527607 0.994042
vt -2.238914 0.529086
vt -2.238914 0.294230
vt -1.503258 0.529086
vt -0.563823 0.763943
vt -0.649487 0.998803
vt -0.649487 0.763943
vt -0.767602 0.998803
vt -0.767602 0.763943
vt -2.357029 0.763943
vt -2.442693 0.998803
vt -2.442693 0.763943
vt 2.413668 -0.015061
vt 3.353103 -0.440931
vt 3.353103 -0.015061
vt 1.442857 1.933476
vt 1.358107 0.994041
vt 1.442857 0.994041
vt 0.323166 0.998804
vt -0.404638 0.059368
vt 0.323166 0.059368
vt -1.503258 0.998803
vt -1.503258 0.529086
vt -2.238914 0.763943
vt -2.357029 0.998803
vt -0.767602 0.059369
vt -0.649487 -0.410351
vt -0.649487 0.059369
vt 2.413668 -0.440931
vt 3.353103 -0.536358
vt 2.413667 -3.463514
vt 1.474232 -3.036396
vt 1.474232 -3.463514
vt -2.238914 0.998803
vt -2.357029 1.425921
vt -0.767602 1.425921
vt -2.158636 1.527778
vt -2.437308 4.463513
vt -2.437308 1.527778
vt 2.413667 -3.036396
vt 1.474232 -2.934538
vt -2.238914 1.425921
vt -0.649487 1.425921
vt -0.847880 1.527778
vt 0.810495 1.933476
vt 0.534798 0.994041
vt 0.810495 0.994041
vt -0.569209 1.527778
vt -0.847881 4.463513
vt 2.413668 -0.536358
vt 3.353103 -3.463514
vt 2.413667 -2.934538
vt 1.474232 0.001197
vt 1.474233 -2.995169
vt 0.534798 -2.872549
vt 0.534798 -2.995169
vt 1.474233 -3.463514
vt 0.534798 -3.463514
vt -2.357029 0.059369
vt -2.238914 -0.410351
vt -2.238914 0.059369
vt -0.404638 0.059369
vt 0.534798 -0.410351
vt 0.534798 0.059369
vt -0.840028 -0.527778
vt -0.577061 -3.463514
vt -0.577062 -0.527778
vt -0.404638 -0.410351
vt 0.534798 -0.527778
vt -0.767602 -0.410351
vt -2.357029 -0.410351
vt -2.166488 -0.527778
vt 1.070653 1.933477
vt 0.810494 0.994042
vt 1.070653 0.994042
vt -2.429454 -0.527778
vt -2.166488 -3.463514
vt 1.474233 -2.872549
vt 0.534798 0.054606
vt -0.404638 -0.527778
vt 0.534798 -3.463514
vt 1.003142 0.994041
vt 0.534798 0.054606
vt -2.357029 0.529086
vt -2.357029 0.294230
vt -2.442693 0.529086
vt -2.442693 0.294230
vt -0.649487 0.294230
vt -0.767602 0.529086
vt -0.767602 0.294230
vt -0.649487 0.529086
vt -0.410062 0.824731
vt -0.425965 0.881373
vt -0.563823 0.059369
vt -2.442693 0.059369
vt -2.596454 0.233441
vt -2.580551 0.176796
vt -0.563823 0.529086
vt 0.489237 0.059368
vt 0.489237 0.059368
vt 0.489237 0.059368
vt 2.669009 0.994041
vt 2.434150 0.054606
vt 2.669009 0.054606
vt 2.434150 0.994041
vt 2.199291 0.054606
vt 0.489237 0.059368
vt 0.489237 0.059368
vt 0.489237 0.059368
vt -2.601878 0.294230
vt -2.580552 0.881373
vt -2.596454 0.824731
vt -0.404638 0.529086
vt -0.404638 0.763943
vt 0.489237 0.059368
vt 0.489237 0.059368
vt 0.489237 0.059368
vt -2.601878 0.529086
vt 1.358107 1.933477
vt 1.316180 0.994042
vt 1.358107 0.994042
vt 1.316180 1.933477
vt 1.274779 0.994042
vt 1.274779 1.933477
vt 1.236724 0.994042
vt 1.236724 1.933476
vt 1.188084 0.994041
vt 1.188084 1.933476
vt 1.131440 0.994041
vt 1.131440 1.933476
vt 1.070654 0.994041
vt 2.669009 0.054606
vt 2.710935 0.994042
vt 2.669009 0.994042
vt 2.710935 0.054606
vt 2.752337 0.994042
vt 2.752337 0.054606
vt 2.790392 0.994042
vt 0.323167 0.059368
vt 0.371807 0.998804
vt 0.323167 0.998804
vt 0.371807 0.059368
vt 0.428451 0.998804
vt 0.428451 0.059368
vt 0.489237 0.998804
vt 0.489237 0.059368
vt 0.489237 0.059368
vt 0.489237 0.059368
vt -0.563823 0.059369
vt -0.522623 0.067368
vt -0.484231 0.090833
vt -0.451262 0.128156
vt -0.404638 0.294230
vt -0.404638 0.294230
vt 1.442857 1.933477
vt -1.503258 0.059369
vt -1.503258 0.998803
vt -0.563823 0.998803
vt 1.358107 1.933476
vt -0.404638 0.998804
vt -1.503258 0.059369
vt -2.158637 4.463513
vt 0.534798 1.933476
vt -0.569209 4.463513
vt 2.413668 -3.463514
vt 2.413667 0.001197
vt -0.840028 -3.463514
vt 0.810494 1.933477
vt -2.429454 -3.463514
vt 1.474233 0.054606
vt -0.404638 -3.463514
vt 0.534798 0.994041
vt -0.563823 0.998803
vt -0.404638 0.763943
vt -0.522623 0.990801
vt -0.484231 0.967339
vt -0.451262 0.930017
vt -2.442693 0.059369
vt -2.601878 0.294230
vt -2.483893 0.067368
vt -2.522285 0.090833
vt -2.555254 0.128156
vt 0.489237 0.059368
vt 2.199291 0.994041
vt 0.489237 0.059368
vt -2.442693 0.998803
vt -2.483893 0.990801
vt -2.522285 0.967339
vt -2.555254 0.930017
vt -2.601878 0.763943
vt -2.601878 0.763943
vt 0.489237 0.059368
vt 1.070654 1.933476
vt 2.790392 0.054606
vt 0.489237 0.059368
vn 0.0000 1.0000 0.0000
vn 0.0000 0.0000 -1.0000
vn 1.0000 0.0000 0.0000
vn 0.0000 0.0000 1.0000
vn 0.0000 -1.0000 0.0000
vn 0.3205 0.0000 -0.9472
vn -1.0000 0.0000 0.0000
vn -0.3205 0.0000 -0.9472
vn 0.3969 0.0000 0.9179
vn -0.3969 0.0000 0.9179
vn -0.0517 0.0000 0.9987
vn -0.1608 0.0000 0.9870
vn -0.2890 0.0000 0.9573
vn -0.4563 0.0000 0.8898
vn -0.6887 0.0000 0.7251
vn -0.9483 0.0000 0.3173
vn -0.0517 0.0000 -0.9987
vn -0.1608 0.0000 -0.9870
vn -0.2890 0.0000 -0.9573
vn -0.4563 0.0000 -0.8898
vn -0.6887 0.0000 -0.7251
vn -0.9483 0.0000 -0.3173
s off
f 86/1/1 87/2/1 49/3/1
f 13/4/2 7/5/2 15/6/2
f 8/7/3 41/8/3 7/5/3
f 12/9/4 1/10/4 11/11/4
f 48/12/5 54/13/5 41/14/5
f 60/15/1 12/16/1 56/17/1
f 56/17/1 16/18/1 58/19/1
f 57/20/5 1/21/5 55/22/5
f 16/23/3 20/24/3 14/25/3
f 4/26/2 9/27/2 3/28/2
f 6/29/4 14/30/4 5/31/4
f 6/32/1 42/33/1 58/19/1
f 59/34/5 11/35/5 57/20/5
f 13/36/1 31/37/1 10/38/1
f 17/39/6 24/40/6 20/24/6
f 11/41/7 18/42/7 12/43/7
f 14/44/5 19/45/5 11/35/5
f 12/16/1 17/46/1 16/18/1
f 24/47/5 27/48/5 23/49/5
f 19/50/8 22/51/8 18/42/8
f 20/52/5 23/49/5 19/45/5
f 18/53/1 21/54/1 17/46/1
f 25/55/4 27/56/4 28/57/4
f 22/58/1 25/59/1 21/54/1
f 21/60/3 28/61/3 24/40/3
f 23/62/7 26/63/7 22/51/7
f 29/64/9 36/65/9 32/66/9
f 15/67/3 32/66/3 13/68/3
f 9/69/5 29/70/5 15/71/5
f 10/72/7 30/73/7 9/74/7
f 36/75/1 39/76/1 35/77/1
f 31/78/10 34/79/10 30/73/10
f 32/80/1 35/77/1 31/37/1
f 30/81/5 33/82/5 29/70/5
f 39/83/2 37/84/2 38/85/2
f 34/86/5 37/87/5 33/82/5
f 33/88/3 40/89/3 36/65/3
f 35/90/7 38/91/7 34/79/7
f 42/92/3 5/93/3 41/8/3
f 54/13/5 46/94/5 52/95/5
f 52/95/5 43/96/5 50/97/5
f 51/98/1 47/99/1 53/100/1
f 49/3/1 45/101/1 51/98/1
f 76/102/1 77/103/1 60/15/1
f 4/104/1 51/98/1 10/38/1
f 10/38/1 53/100/1 13/36/1
f 9/69/5 50/97/5 3/105/5
f 15/71/5 52/95/5 9/69/5
f 90/106/5 91/107/5 50/97/5
f 48/12/5 57/20/5 46/94/5
f 46/94/5 55/22/5 43/96/5
f 45/101/1 58/19/1 47/99/1
f 44/108/1 56/17/1 45/101/1
f 4/109/4 89/110/4 81/111/4
f 65/112/7 64/113/7 61/114/7
f 66/115/7 63/116/7 64/113/7
f 1/117/4 75/118/4 67/119/4
f 43/96/5 63/120/5 50/97/5
f 72/121/5 73/122/5 55/22/5
f 49/3/1 66/123/1 44/108/1
f 44/108/1 65/124/1 60/15/1
f 63/125/4 82/126/4 88/127/4
f 55/22/5 64/128/5 43/96/5
f 75/129/11 69/130/11 67/131/11
f 80/132/12 70/133/12 69/130/12
f 79/134/13 71/135/13 70/133/13
f 78/136/14 72/137/14 71/135/14
f 77/138/15 73/139/15 72/137/15
f 76/140/16 68/141/16 73/139/16
f 89/142/17 83/143/17 81/144/17
f 94/145/18 84/146/18 83/143/18
f 93/147/19 85/148/19 84/146/19
f 92/149/20 86/150/20 85/151/20
f 91/152/21 87/153/21 86/150/21
f 90/154/22 82/155/22 87/153/22
f 68/156/4 65/157/4 61/158/4
f 49/3/4 4/104/4 81/159/4
f 81/159/1 83/160/1 49/3/1
f 83/160/1 84/161/1 49/3/1
f 84/161/1 85/162/1 49/3/1
f 85/162/1 86/1/1 49/3/1
f 87/2/4 82/163/4 62/164/4
f 62/164/1 49/3/1 87/2/1
f 13/4/2 8/7/2 7/5/2
f 8/7/3 42/92/3 41/8/3
f 12/9/4 2/165/4 1/10/4
f 54/13/5 15/71/5 7/166/5
f 41/14/5 5/167/5 59/34/5
f 5/167/5 14/44/5 59/34/5
f 54/13/5 7/166/5 41/14/5
f 59/34/5 48/12/5 41/14/5
f 60/15/1 2/168/1 12/16/1
f 56/17/1 12/16/1 16/18/1
f 57/20/5 11/35/5 1/21/5
f 16/23/3 17/39/3 20/24/3
f 4/26/2 10/169/2 9/27/2
f 6/29/4 16/170/4 14/30/4
f 42/33/1 8/171/1 53/100/1
f 8/171/1 13/36/1 53/100/1
f 53/100/1 47/99/1 42/33/1
f 47/99/1 58/19/1 42/33/1
f 16/18/1 6/32/1 58/19/1
f 59/34/5 14/44/5 11/35/5
f 13/36/1 32/80/1 31/37/1
f 17/39/6 21/60/6 24/40/6
f 11/41/7 19/50/7 18/42/7
f 14/44/5 20/52/5 19/45/5
f 12/16/1 18/53/1 17/46/1
f 24/47/5 28/172/5 27/48/5
f 19/50/8 23/62/8 22/51/8
f 20/52/5 24/47/5 23/49/5
f 18/53/1 22/58/1 21/54/1
f 25/55/4 26/173/4 27/56/4
f 22/58/1 26/174/1 25/59/1
f 21/60/3 25/175/3 28/61/3
f 23/62/7 27/176/7 26/63/7
f 29/64/9 33/88/9 36/65/9
f 15/67/3 29/64/3 32/66/3
f 9/69/5 30/81/5 29/70/5
f 10/72/7 31/78/7 30/73/7
f 36/75/1 40/177/1 39/76/1
f 31/78/10 35/90/10 34/79/10
f 32/80/1 36/75/1 35/77/1
f 30/81/5 34/86/5 33/82/5
f 39/83/2 40/178/2 37/84/2
f 34/86/5 38/179/5 37/87/5
f 33/88/3 37/180/3 40/89/3
f 35/90/7 39/181/7 38/91/7
f 42/92/3 6/182/3 5/93/3
f 54/13/5 48/12/5 46/94/5
f 52/95/5 46/94/5 43/96/5
f 51/98/1 45/101/1 47/99/1
f 49/3/1 44/108/1 45/101/1
f 75/183/4 2/168/4 60/15/4
f 65/124/4 74/184/4 76/102/4
f 75/183/1 60/15/1 80/185/1
f 60/15/1 65/124/1 76/102/1
f 79/186/1 60/15/1 78/187/1
f 79/186/1 80/185/1 60/15/1
f 77/103/1 78/187/1 60/15/1
f 4/104/1 49/3/1 51/98/1
f 10/38/1 51/98/1 53/100/1
f 9/69/5 52/95/5 50/97/5
f 15/71/5 54/13/5 52/95/5
f 89/188/4 3/105/4 50/97/4
f 63/120/4 88/189/4 90/106/4
f 89/188/5 50/97/5 94/190/5
f 50/97/5 63/120/5 90/106/5
f 93/191/5 50/97/5 92/192/5
f 93/191/5 94/190/5 50/97/5
f 91/107/5 92/192/5 50/97/5
f 48/12/5 59/34/5 57/20/5
f 46/94/5 57/20/5 55/22/5
f 45/101/1 56/17/1 58/19/1
f 44/108/1 60/15/1 56/17/1
f 4/109/4 3/193/4 89/110/4
f 65/112/7 66/115/7 64/113/7
f 66/115/7 62/194/7 63/116/7
f 1/117/4 2/195/4 75/118/4
f 43/96/5 64/128/5 63/120/5
f 55/22/4 1/21/4 67/196/4
f 67/196/5 69/197/5 55/22/5
f 69/197/5 70/198/5 55/22/5
f 70/198/5 71/199/5 55/22/5
f 71/199/5 72/121/5 55/22/5
f 73/122/4 68/200/4 61/201/4
f 61/201/5 55/22/5 73/122/5
f 49/3/1 62/164/1 66/123/1
f 44/108/1 66/123/1 65/124/1
f 63/125/4 62/202/4 82/126/4
f 55/22/5 61/201/5 64/128/5
f 75/129/11 80/132/11 69/130/11
f 80/132/12 79/134/12 70/133/12
f 79/134/13 78/136/13 71/135/13
f 78/136/14 77/138/14 72/137/14
f 77/138/15 76/140/15 73/139/15
f 76/140/16 74/203/16 68/141/16
f 89/142/17 94/145/17 83/143/17
f 94/145/18 93/147/18 84/146/18
f 93/147/19 92/204/19 85/148/19
f 92/149/20 91/152/20 86/150/20
f 91/152/21 90/154/21 87/153/21
f 90/154/22 88/127/22 82/155/22
f 68/156/4 74/205/4 65/157/4
